# xmcd
#
# Track frame offsets:
#	150
#	14779
#	31497
#	48684
#	66834
#	79855
#	94587
#	113134
#	130885
#	148436
#	164107
#	184099
#	201587
#	219901
#	235575
#
# Disc length: 3364 seconds
#
# Revision: 1
# Processed by: cddbd v1.5.2PL0 Copyright (c) Steve Scherf et al.
# Submitted via: EasyCDDAExtractor 15.3.0.1
#
DISCID=e60d220f
DTITLE=Gloria Estefan - Miss Little Havana (Target Deluxe Edition)
DYEAR=2011
DGENRE=Pop
TTITLE0=Miss Little Havana
TTITLE1=I Can't Believe
TTITLE2=Heat
TTITLE3=Wepa
TTITLE4=Say Ay
TTITLE5=So Good
TTITLE6=Right Away
TTITLE7=Make Me Say Yes
TTITLE8=Time Is Ticking
TTITLE9=Hotel Nacional
TTITLE10=On
TTITLE11=Make My Heart Go
TTITLE12=Medicine
TTITLE13=Wepa (Rehab Remix Featuring Pitbull) (Bonus Track)
TTITLE14=Let's Get Loud (Bonus Track)
EXTD=
EXTT0=
EXTT1=
EXTT2=
EXTT3=
EXTT4=
EXTT5=
EXTT6=
EXTT7=
EXTT8=
EXTT9=
EXTT10=
EXTT11=
EXTT12=
EXTT13=
EXTT14=
PLAYORDER=
